<svg width="309" height="196" viewBox="0 0 309 196" fill="none" xmlns="http://www.w3.org/2000/svg">
<path fill-rule="evenodd" clip-rule="evenodd" d="M291.373 76.711C293.204 78.542 295.687 79.5707 298.277 79.5707C300.866 79.5707 303.35 78.542 305.181 76.711C307.012 74.8799 308.04 72.3965 308.04 69.807V10.563C308.04 7.97352 307.012 5.49008 305.181 3.65903C303.35 1.82798 300.866 0.799316 298.277 0.799316H238.208C235.61 0.799316 233.118 1.83141 231.281 3.66857C229.444 5.50572 228.412 7.99744 228.412 10.5956C228.412 13.1937 229.444 15.6854 231.281 17.5226C233.118 19.3597 235.61 20.3918 238.208 20.3918H273.212L173.482 120.2L124.664 71.3819C123.757 70.47 122.678 69.7464 121.49 69.2527C120.302 68.7589 119.029 68.5048 117.742 68.5048C116.456 68.5048 115.182 68.7589 113.995 69.2527C112.807 69.7464 111.728 70.47 110.821 71.3819L2.89969 179.292C1.51618 180.66 0.572756 182.41 0.190423 184.317C-0.191909 186.225 0.00428369 188.203 0.753833 189.998C1.50338 191.793 2.77211 193.324 4.39731 194.393C6.0225 195.462 7.93005 196.021 9.87531 195.999C12.4513 195.971 14.9119 194.926 16.7207 193.092L117.71 92.1027L166.528 140.921C167.436 141.833 168.514 142.557 169.702 143.05C170.89 143.544 172.163 143.798 173.45 143.798C174.736 143.798 176.01 143.544 177.198 143.05C178.385 142.557 179.464 141.833 180.371 140.921L288.513 32.7893V69.807C288.513 72.3965 289.542 74.8799 291.373 76.711Z" fill="white" fill-opacity="0.3"/>
</svg>
